<svg width="35" height="39" viewBox="0 0 35 39" fill="none" xmlns="http://www.w3.org/2000/svg">
<path fill-rule="evenodd" clip-rule="evenodd" d="M16.9136 34.3272C18.8753 34.3272 20.7589 33.9933 22.5108 33.3791L27.0952 38.5H34.1611L27.2803 30.7788C27.2813 30.778 27.2824 30.7772 27.2834 30.7764L22.7608 25.709C21.108 26.8761 19.0909 27.5618 16.9136 27.5618C11.3089 27.5618 6.76545 23.0183 6.76545 17.4136C6.76545 11.8089 11.3089 7.26545 16.9136 7.26545C22.5183 7.26545 27.0618 11.8089 27.0618 17.4136C27.0618 18.344 26.9366 19.2451 26.7021 20.101L22.978 15.9114H15.9678L23.921 24.7541C23.9204 24.7546 23.9199 24.7552 23.9193 24.7557L28.5647 29.6743C31.8063 26.5928 33.8272 22.2392 33.8272 17.4136C33.8272 8.07248 26.2548 0.5 16.9136 0.5C7.57248 0.5 0 8.07248 0 17.4136C0 26.7547 7.57248 34.3272 16.9136 34.3272Z" fill="url(#paint0_linear_20_520)"/>
<defs>
<linearGradient id="paint0_linear_20_520" x1="28.4305" y1="-0.946561" x2="8.12299" y2="31.2116" gradientUnits="userSpaceOnUse">
<stop stop-color="#D97BFE"/>
<stop offset="1" stop-color="#5D1EED"/>
</linearGradient>
</defs>
</svg>
